# xmcd
#
# Track frame offsets:
#	150
#	15589
#	25168
#	39661
#	55915
#	68874
#	84231
#	101402
#	117926
#	132268
#	147582
#
# Disc length: 2170 seconds
#
# Revision: 1
# Processed by: cddbd v1.5.2PL0 Copyright (c) Steve Scherf et al.
# Submitted via: audiograbber 1.83.01
#
DISCID=9008780b
DTITLE=varios - varios
DYEAR=2008
DGENRE=pop
TTITLE0=pista 1
TTITLE1=pista 2
TTITLE2=pista 3
TTITLE3=pista 4
TTITLE4=pista 5
TTITLE5=pista 6
TTITLE6=pista 7
TTITLE7=pista 8
TTITLE8=pista 9
TTITLE9=pista 10
TTITLE10=pista 11
EXTD=
EXTT0=
EXTT1=
EXTT2=
EXTT3=
EXTT4=
EXTT5=
EXTT6=
EXTT7=
EXTT8=
EXTT9=
EXTT10=
PLAYORDER=
